<?xml version="1.0" encoding="UTF-8" standalone="no"?>
<!DOCTYPE svg PUBLIC "-//W3C//DTD SVG 1.1//EN"
 "http://www.w3.org/Graphics/SVG/1.1/DTD/svg11.dtd">
<!-- Generated by graphviz version 2.26.3 (20100126.1600)
 -->
<!-- Title: G Pages: 1 -->
<svg width="432pt" height="422pt"
 viewBox="0.00 0.00 432.00 422.00" xmlns="http://www.w3.org/2000/svg" xmlns:xlink="http://www.w3.org/1999/xlink">
<g id="graph1" class="graph" transform="scale(1 1) rotate(0) translate(4 418)">
<title>G</title>
<polygon fill="white" stroke="white" points="-4,5 -4,-418 429,-418 429,5 -4,5"/>
<g id="graph2" class="cluster"><title>cluster_global</title>
<polyline fill="none" stroke="gray" points="300,-8 404,-8 "/>
<path fill="none" stroke="gray" d="M404,-8C410,-8 416,-14 416,-20"/>
<polyline fill="none" stroke="gray" points="416,-20 416,-394 "/>
<path fill="none" stroke="gray" d="M416,-394C416,-400 410,-406 404,-406"/>
<polyline fill="none" stroke="gray" points="404,-406 300,-406 "/>
<path fill="none" stroke="gray" d="M300,-406C294,-406 288,-400 288,-394"/>
<polyline fill="none" stroke="gray" points="288,-394 288,-20 "/>
<path fill="none" stroke="gray" d="M288,-20C288,-14 294,-8 300,-8"/>
<text text-anchor="middle" x="352" y="-392.1" font-family="Times Roman,serif" font-size="11.00" fill="gray">global</text>
</g>
<!-- \\NewAr -->
<g id="node2" class="node"><title>\\NewAr</title>
<a xlink:href="Migrations.html" xlink:title="NewAr" target="_parent">
<polygon fill="none" stroke="black" points="379,-376 325,-376 325,-340 379,-340 379,-376"/>
<text text-anchor="middle" x="352" y="-355.1" font-family="Courier,monospace" font-size="11.00">NewAr</text>
</a>
</g>
<!-- \\ActiveRecord -->
<g id="node10" class="node"><title>\\ActiveRecord</title>
<ellipse fill="none" stroke="black" cx="112" cy="-358" rx="77.7817" ry="18.3848"/>
<text text-anchor="middle" x="112" y="-354.4" font-family="Times Roman,serif" font-size="14.00" fill="gray">\ActiveRecord</text>
</g>
<!-- \\NewAr&#45;&gt;\\ActiveRecord -->
<g id="edge3" class="edge"><title>\\NewAr&#45;&gt;\\ActiveRecord</title>
<path fill="none" stroke="black" d="M324.935,-358C294.797,-358 244.506,-358 200.365,-358"/>
<polygon fill="none" stroke="black" points="200.174,-354.5 190.174,-358 200.174,-361.5 200.174,-354.5"/>
</g>
<!-- \\Migrations -->
<g id="node3" class="node"><title>\\Migrations</title>
<a xlink:href="Migrations.html" xlink:title="«abstract»&lt;br/&gt;Migrations" target="_parent">
<polygon fill="none" stroke="black" points="394,-322 310,-322 310,-286 394,-286 394,-322"/>
<text text-anchor="start" x="318" y="-309.433" font-family="Courier,monospace" font-size="11.00">«abstract»</text>
<text text-anchor="start" x="318" y="-296.233" font-family="Courier,monospace" font-size="11.00">Migrations</text>
</a>
</g>
<!-- \\Core_General_Class -->
<g id="node12" class="node"><title>\\Core_General_Class</title>
<ellipse fill="none" stroke="black" cx="112" cy="-277" rx="111.222" ry="18.3848"/>
<text text-anchor="middle" x="112" y="-273.4" font-family="Times Roman,serif" font-size="14.00" fill="gray">\Core_General_Class</text>
</g>
<!-- \\Migrations&#45;&gt;\\Core_General_Class -->
<g id="edge5" class="edge"><title>\\Migrations&#45;&gt;\\Core_General_Class</title>
<path fill="none" stroke="black" d="M309.369,-299.204C282.819,-296.217 247.459,-292.239 214.008,-288.476"/>
<polygon fill="none" stroke="black" points="214.028,-284.956 203.7,-287.316 213.246,-291.912 214.028,-284.956"/>
</g>
<!-- \\Page -->
<g id="node4" class="node"><title>\\Page</title>
<a xlink:href="Page.html" xlink:title="«abstract»&lt;br/&gt;Page" target="_parent">
<polygon fill="none" stroke="black" points="394,-268 310,-268 310,-232 394,-232 394,-268"/>
<text text-anchor="start" x="318" y="-255.433" font-family="Courier,monospace" font-size="11.00">«abstract»</text>
<text text-anchor="start" x="338" y="-242.233" font-family="Courier,monospace" font-size="11.00">Page</text>
</a>
</g>
<!-- \\Page&#45;&gt;\\Core_General_Class -->
<g id="edge7" class="edge"><title>\\Page&#45;&gt;\\Core_General_Class</title>
<path fill="none" stroke="black" d="M309.369,-254.796C282.819,-257.783 247.459,-261.761 214.008,-265.524"/>
<polygon fill="none" stroke="black" points="213.246,-262.088 203.7,-266.684 214.028,-269.044 213.246,-262.088"/>
</g>
<!-- \\IrregularNouns -->
<g id="node5" class="node"><title>\\IrregularNouns</title>
<a xlink:href="ext.StringFunctionsLibrary.IrregularNouns.html" xlink:title="IrregularNouns" target="_parent">
<polygon fill="none" stroke="black" points="407,-214 297,-214 297,-178 407,-178 407,-214"/>
<text text-anchor="middle" x="352" y="-193.1" font-family="Courier,monospace" font-size="11.00">IrregularNouns</text>
</a>
</g>
<!-- \\Driver -->
<g id="node6" class="node"><title>\\Driver</title>
<a xlink:href="Driver.html" xlink:title="Driver" target="_parent">
<polygon fill="none" stroke="black" points="380,-160 324,-160 324,-124 380,-124 380,-160"/>
<text text-anchor="middle" x="352" y="-139.1" font-family="Courier,monospace" font-size="11.00">Driver</text>
</a>
</g>
<!-- \\PDO -->
<g id="node15" class="node"><title>\\PDO</title>
<ellipse fill="none" stroke="black" cx="112" cy="-142" rx="36.977" ry="18.3848"/>
<text text-anchor="middle" x="112" y="-138.4" font-family="Times Roman,serif" font-size="14.00" fill="gray">\PDO</text>
</g>
<!-- \\Driver&#45;&gt;\\PDO -->
<g id="edge9" class="edge"><title>\\Driver&#45;&gt;\\PDO</title>
<path fill="none" stroke="black" d="M323.05,-142C282.63,-142 208.774,-142 160.035,-142"/>
<polygon fill="none" stroke="black" points="159.735,-138.5 149.735,-142 159.735,-145.5 159.735,-138.5"/>
</g>
<!-- \\index -->
<g id="node7" class="node"><title>\\index</title>
<a xlink:href="Dispatcher.html" xlink:title="index" target="_parent">
<polygon fill="none" stroke="black" points="379,-106 325,-106 325,-70 379,-70 379,-106"/>
<text text-anchor="middle" x="352" y="-85.1" font-family="Courier,monospace" font-size="11.00">index</text>
</a>
</g>
<!-- \\Errors -->
<g id="node8" class="node"><title>\\Errors</title>
<a xlink:href="errors.html" xlink:title="Errors" target="_parent">
<polygon fill="none" stroke="black" points="380,-52 324,-52 324,-16 380,-16 380,-52"/>
<text text-anchor="middle" x="352" y="-31.1" font-family="Courier,monospace" font-size="11.00">Errors</text>
</a>
</g>
</g>
</svg>
